<mxfile host="app.diagrams.net" agent="Mozilla/5.0 (Windows NT 10.0; Win64; x64) AppleWebKit/537.36 (KHTML, like Gecko) Chrome/135.0.0.0 Safari/537.36" version="26.2.14">
  <diagram name="Page-1" id="9361dd3d-8414-5efd-6122-117bd74ce7a7">
    <mxGraphModel grid="1" page="0" gridSize="10" guides="1" tooltips="1" connect="1" arrows="1" fold="1" pageScale="1.5" pageWidth="826" pageHeight="1169" background="none" math="0" shadow="0">
      <root>
        <mxCell id="0" />
        <mxCell id="1" parent="0" />
        <mxCell id="69" value="" style="fillColor=#DEE8FF;strokeColor=none" vertex="1" parent="1">
          <mxGeometry x="20" width="1150" height="460" as="geometry" />
        </mxCell>
        <mxCell id="2" value="" style="fillColor=#CC4125;strokeColor=#660000" vertex="1" parent="1">
          <mxGeometry x="200" y="150" width="10" height="200" as="geometry" />
        </mxCell>
        <mxCell id="3" value="press the&#xa;&quot;add to cart&quot;Â button" style="edgeStyle=none;verticalLabelPosition=top;verticalAlign=bottom;labelPosition=left;align=right" edge="1" parent="1">
          <mxGeometry x="110" y="49.5" width="100" height="100" as="geometry">
            <mxPoint x="110" y="149.5" as="sourcePoint" />
            <mxPoint x="200" y="149.5" as="targetPoint" />
          </mxGeometry>
        </mxCell>
        <mxCell id="4" value="&lt;&lt;view&gt;&gt;&#xa;:SingleRestaurantPage" style="shadow=1;fillColor=#A2C4C9;strokeColor=none" vertex="1" parent="1">
          <mxGeometry x="140" y="60" width="130" height="50" as="geometry" />
        </mxCell>
        <mxCell id="6" value="" style="fillColor=#CC4125;strokeColor=#660000" vertex="1" parent="1">
          <mxGeometry x="390" y="170" width="10" height="160" as="geometry" />
        </mxCell>
        <mxCell id="7" value="&lt;&lt;controller&gt;&gt;&#xa;:CustomerController" style="shadow=1;fillColor=#A2C4C9;strokeColor=none" vertex="1" parent="1">
          <mxGeometry x="330" y="60" width="130" height="50" as="geometry" />
        </mxCell>
        <mxCell id="8" value="" style="edgeStyle=none;endArrow=none;dashed=1" edge="1" parent="1" source="7" target="6">
          <mxGeometry x="272.3350694444445" y="165" width="100" height="100" as="geometry">
            <mxPoint x="347.2588734567901" y="110" as="sourcePoint" />
            <mxPoint x="347.5761959876544" y="165" as="targetPoint" />
          </mxGeometry>
        </mxCell>
        <mxCell id="9" value="updateOrder(user, pk, action)" style="edgeStyle=none;verticalLabelPosition=top;verticalAlign=bottom;dashed=1;dashPattern=8 8;" edge="1" parent="1">
          <mxGeometry width="100" height="100" as="geometry">
            <mxPoint x="210" y="179.5" as="sourcePoint" />
            <mxPoint x="393" y="180" as="targetPoint" />
            <mxPoint as="offset" />
          </mxGeometry>
        </mxCell>
        <mxCell id="12" value="" style="edgeStyle=none;verticalLabelPosition=top;verticalAlign=bottom;labelPosition=left;align=right;endArrow=none;startArrow=classic;dashed=1" edge="1" parent="1">
          <mxGeometry x="110" y="179.75887345679013" width="100" height="100" as="geometry">
            <mxPoint x="110" y="349.99887345679014" as="sourcePoint" />
            <mxPoint x="200" y="349.99887345679014" as="targetPoint" />
          </mxGeometry>
        </mxCell>
        <mxCell id="BqZ-N2UubXxquW4L1a5G-129" value="shows the message&lt;div&gt;&quot;item added to cart&lt;/div&gt;&lt;div&gt;successfully&quot;&lt;/div&gt;" style="edgeLabel;html=1;align=center;verticalAlign=middle;resizable=0;points=[];" connectable="0" vertex="1" parent="12">
          <mxGeometry relative="1" as="geometry">
            <mxPoint x="-3" y="-24" as="offset" />
          </mxGeometry>
        </mxCell>
        <mxCell id="15" value="&lt;&lt;controller&gt;&gt;&#xa;:CustomerService" style="shadow=1;fillColor=#A2C4C9;strokeColor=none" vertex="1" parent="1">
          <mxGeometry x="500.00395061728386" y="59.99999999999997" width="105" height="50" as="geometry" />
        </mxCell>
        <mxCell id="16" value="" style="edgeStyle=none;endArrow=none" edge="1" parent="1" source="15" target="17">
          <mxGeometry x="437.042824074074" y="270" width="100" height="100" as="geometry">
            <mxPoint x="514.542824074074" y="219.99999999999997" as="sourcePoint" />
            <mxPoint x="514.542824074074" y="239.99999999999997" as="targetPoint" />
          </mxGeometry>
        </mxCell>
        <mxCell id="BqZ-N2UubXxquW4L1a5G-105" style="edgeStyle=orthogonalEdgeStyle;rounded=0;orthogonalLoop=1;jettySize=auto;html=1;exitX=1;exitY=0.75;exitDx=0;exitDy=0;entryX=0;entryY=0.25;entryDx=0;entryDy=0;" edge="1" parent="1" source="17" target="26">
          <mxGeometry relative="1" as="geometry">
            <Array as="points">
              <mxPoint x="560" y="300" />
              <mxPoint x="663" y="300" />
            </Array>
          </mxGeometry>
        </mxCell>
        <mxCell id="BqZ-N2UubXxquW4L1a5G-106" value="o.restaurant=restaurant" style="edgeLabel;html=1;align=center;verticalAlign=middle;resizable=0;points=[];" connectable="0" vertex="1" parent="BqZ-N2UubXxquW4L1a5G-105">
          <mxGeometry x="-0.0356" y="2" relative="1" as="geometry">
            <mxPoint as="offset" />
          </mxGeometry>
        </mxCell>
        <mxCell id="BqZ-N2UubXxquW4L1a5G-110" style="edgeStyle=orthogonalEdgeStyle;rounded=0;orthogonalLoop=1;jettySize=auto;html=1;exitX=1;exitY=1;exitDx=0;exitDy=0;entryX=0;entryY=0.25;entryDx=0;entryDy=0;" edge="1" parent="1" source="17" target="BqZ-N2UubXxquW4L1a5G-109">
          <mxGeometry relative="1" as="geometry">
            <Array as="points">
              <mxPoint x="630" y="310" />
              <mxPoint x="630" y="310" />
            </Array>
          </mxGeometry>
        </mxCell>
        <mxCell id="BqZ-N2UubXxquW4L1a5G-111" value="oi = o.oi" style="edgeLabel;html=1;align=center;verticalAlign=middle;resizable=0;points=[];" connectable="0" vertex="1" parent="BqZ-N2UubXxquW4L1a5G-110">
          <mxGeometry x="0.6556" y="1" relative="1" as="geometry">
            <mxPoint as="offset" />
          </mxGeometry>
        </mxCell>
        <mxCell id="17" value="" style="fillColor=#CC4125;strokeColor=#660000" vertex="1" parent="1">
          <mxGeometry x="550.0039506172839" y="180.00429012345683" width="10" height="130" as="geometry" />
        </mxCell>
        <mxCell id="19" value="addMenutoOrder&#xa;(customer, menu)" style="edgeStyle=elbowEdgeStyle;elbow=vertical;verticalLabelPosition=top;verticalAlign=bottom;dashed=1;dashPattern=8 8;" edge="1" parent="1">
          <mxGeometry x="350" y="290" width="100" height="100" as="geometry">
            <mxPoint x="400" y="240" as="sourcePoint" />
            <mxPoint x="550.0039506172839" y="240" as="targetPoint" />
          </mxGeometry>
        </mxCell>
        <mxCell id="21" value="" style="fillColor=#CC4125;strokeColor=#660000" vertex="1" parent="1">
          <mxGeometry x="710" y="269.3942901234568" width="10" height="80" as="geometry" />
        </mxCell>
        <mxCell id="22" value="&lt;&lt;model&gt;&gt;&#xa;c:Customer" style="shadow=1;fillColor=#A2C4C9;strokeColor=none" vertex="1" parent="1">
          <mxGeometry x="670" y="100" width="90" height="40" as="geometry" />
        </mxCell>
        <mxCell id="23" value="" style="edgeStyle=none;endArrow=none;dashed=1" edge="1" parent="1" source="22" target="21">
          <mxGeometry x="614.4878472222224" y="174.99999999999997" width="100" height="100" as="geometry">
            <mxPoint x="674.6527777777778" y="110" as="sourcePoint" />
            <mxPoint x="674.6527777777778" y="260" as="targetPoint" />
          </mxGeometry>
        </mxCell>
        <mxCell id="24" value="&lt;&lt;model&gt;&gt;&#xa;o:Order" style="shadow=1;fillColor=#A2C4C9;strokeColor=none" vertex="1" parent="1">
          <mxGeometry x="720" y="185" width="80" height="50" as="geometry" />
        </mxCell>
        <mxCell id="25" value="" style="edgeStyle=none;endArrow=none;dashed=1" edge="1" parent="1" source="24" target="26">
          <mxGeometry x="727.3350694444446" y="165" width="100" height="100" as="geometry">
            <mxPoint x="802.2588734567901" y="110" as="sourcePoint" />
            <mxPoint x="802.5761959876544" y="165" as="targetPoint" />
          </mxGeometry>
        </mxCell>
        <mxCell id="26" value="" style="fillColor=#CC4125;strokeColor=#660000" vertex="1" parent="1">
          <mxGeometry x="754.9999999999999" y="289.3942901234568" width="10" height="40" as="geometry" />
        </mxCell>
        <mxCell id="27" value="" style="edgeStyle=elbowEdgeStyle;elbow=vertical;verticalLabelPosition=top;verticalAlign=bottom" edge="1" parent="1" source="17" target="21">
          <mxGeometry x="540" y="270" width="100" height="100" as="geometry">
            <mxPoint x="540" y="370" as="sourcePoint" />
            <mxPoint x="640" y="270" as="targetPoint" />
            <Array as="points">
              <mxPoint x="590" y="270" />
            </Array>
          </mxGeometry>
        </mxCell>
        <mxCell id="BqZ-N2UubXxquW4L1a5G-104" value="c.order=order" style="edgeLabel;html=1;align=center;verticalAlign=middle;resizable=0;points=[];" connectable="0" vertex="1" parent="27">
          <mxGeometry relative="1" as="geometry">
            <mxPoint y="-1" as="offset" />
          </mxGeometry>
        </mxCell>
        <mxCell id="33" value="" style="edgeStyle=elbowEdgeStyle;elbow=horizontal;endArrow=none;dashed=1" edge="1" parent="1" source="4" target="2">
          <mxGeometry x="230.00000000000003" y="310" width="100" height="100" as="geometry">
            <mxPoint x="230.00000000000003" y="410" as="sourcePoint" />
            <mxPoint x="330" y="310" as="targetPoint" />
          </mxGeometry>
        </mxCell>
        <mxCell id="71" value="add item to cart" style="rounded=1;fontStyle=1;fillColor=#FFD966;strokeColor=none" vertex="1" parent="1">
          <mxGeometry x="50" y="20" width="150" height="30" as="geometry" />
        </mxCell>
        <mxCell id="BqZ-N2UubXxquW4L1a5G-89" value="Customer" style="shape=umlActor;verticalLabelPosition=bottom;verticalAlign=top;html=1;outlineConnect=0;" vertex="1" parent="1">
          <mxGeometry x="60" y="244.39" width="30" height="55.61" as="geometry" />
        </mxCell>
        <mxCell id="BqZ-N2UubXxquW4L1a5G-98" value="if" style="shape=umlFrame;whiteSpace=wrap;html=1;pointerEvents=0;width=30;height=20;" vertex="1" parent="1">
          <mxGeometry x="400" y="185" width="150" height="25" as="geometry" />
        </mxCell>
        <mxCell id="BqZ-N2UubXxquW4L1a5G-101" value="if (action==add)&amp;nbsp;&lt;div&gt;&lt;br&gt;&lt;/div&gt;" style="text;html=1;align=center;verticalAlign=middle;whiteSpace=wrap;rounded=0;" vertex="1" parent="1">
          <mxGeometry x="420" y="185" width="130" height="35" as="geometry" />
        </mxCell>
        <mxCell id="BqZ-N2UubXxquW4L1a5G-107" value="&lt;&lt;model&gt;&gt;&#xa;oi:OrderItem" style="shadow=1;fillColor=#A2C4C9;strokeColor=none" vertex="1" parent="1">
          <mxGeometry x="820" y="185" width="80" height="50" as="geometry" />
        </mxCell>
        <mxCell id="BqZ-N2UubXxquW4L1a5G-108" value="" style="edgeStyle=none;endArrow=none;dashed=1" edge="1" parent="1" target="BqZ-N2UubXxquW4L1a5G-109">
          <mxGeometry x="727.3350694444446" y="165" width="100" height="100" as="geometry">
            <mxPoint x="860" y="235" as="sourcePoint" />
            <mxPoint x="902.5761959876544" y="165" as="targetPoint" />
          </mxGeometry>
        </mxCell>
        <mxCell id="BqZ-N2UubXxquW4L1a5G-119" style="edgeStyle=orthogonalEdgeStyle;rounded=0;orthogonalLoop=1;jettySize=auto;html=1;exitX=1;exitY=0.75;exitDx=0;exitDy=0;entryX=0;entryY=0.25;entryDx=0;entryDy=0;" edge="1" parent="1" source="BqZ-N2UubXxquW4L1a5G-109" target="BqZ-N2UubXxquW4L1a5G-118">
          <mxGeometry relative="1" as="geometry">
            <Array as="points">
              <mxPoint x="865" y="345" />
            </Array>
          </mxGeometry>
        </mxCell>
        <mxCell id="BqZ-N2UubXxquW4L1a5G-120" value="orderRep.save(order)" style="edgeLabel;html=1;align=center;verticalAlign=middle;resizable=0;points=[];" connectable="0" vertex="1" parent="BqZ-N2UubXxquW4L1a5G-119">
          <mxGeometry x="-0.156" relative="1" as="geometry">
            <mxPoint as="offset" />
          </mxGeometry>
        </mxCell>
        <mxCell id="BqZ-N2UubXxquW4L1a5G-109" value="" style="fillColor=#CC4125;strokeColor=#660000" vertex="1" parent="1">
          <mxGeometry x="855" y="300" width="10" height="60" as="geometry" />
        </mxCell>
        <mxCell id="BqZ-N2UubXxquW4L1a5G-112" value="loop" style="shape=umlFrame;whiteSpace=wrap;html=1;pointerEvents=0;width=40;height=20;" vertex="1" parent="1">
          <mxGeometry x="620" y="320" width="240" height="100" as="geometry" />
        </mxCell>
        <mxCell id="BqZ-N2UubXxquW4L1a5G-113" value="[if(oi.menu.Pk==menu.pk)&lt;div&gt;quantity++&lt;/div&gt;&lt;div&gt;menuexists = true&lt;/div&gt;&lt;div&gt;o.totalprice+=oi.price]&lt;/div&gt;" style="text;html=1;align=center;verticalAlign=middle;whiteSpace=wrap;rounded=0;" vertex="1" parent="1">
          <mxGeometry x="620" y="350" width="240" height="70" as="geometry" />
        </mxCell>
        <mxCell id="BqZ-N2UubXxquW4L1a5G-114" value="cond" style="shape=umlFrame;whiteSpace=wrap;html=1;pointerEvents=0;width=40;height=20;" vertex="1" parent="1">
          <mxGeometry x="620" y="350" width="240" height="70" as="geometry" />
        </mxCell>
        <mxCell id="BqZ-N2UubXxquW4L1a5G-115" value="[Traverse all items]" style="text;html=1;align=center;verticalAlign=middle;whiteSpace=wrap;rounded=0;" vertex="1" parent="1">
          <mxGeometry x="660" y="319.39" width="200" height="30" as="geometry" />
        </mxCell>
        <mxCell id="BqZ-N2UubXxquW4L1a5G-116" value="&lt;&lt;model&gt;&gt;&#xa;OrderRepository" style="shadow=1;fillColor=#A2C4C9;strokeColor=none" vertex="1" parent="1">
          <mxGeometry x="1010" y="220" width="100" height="50" as="geometry" />
        </mxCell>
        <mxCell id="BqZ-N2UubXxquW4L1a5G-117" value="" style="edgeStyle=none;endArrow=none;dashed=1" edge="1" parent="1" target="BqZ-N2UubXxquW4L1a5G-118">
          <mxGeometry x="727.3350694444446" y="165" width="100" height="100" as="geometry">
            <mxPoint x="1060" y="270" as="sourcePoint" />
            <mxPoint x="1102.5761959876545" y="200" as="targetPoint" />
          </mxGeometry>
        </mxCell>
        <mxCell id="BqZ-N2UubXxquW4L1a5G-118" value="" style="fillColor=#CC4125;strokeColor=#660000" vertex="1" parent="1">
          <mxGeometry x="1055" y="335" width="10" height="40" as="geometry" />
        </mxCell>
        <mxCell id="BqZ-N2UubXxquW4L1a5G-127" style="edgeStyle=orthogonalEdgeStyle;rounded=0;orthogonalLoop=1;jettySize=auto;html=1;exitX=0;exitY=0.75;exitDx=0;exitDy=0;entryX=1;entryY=0.663;entryDx=0;entryDy=0;entryPerimeter=0;" edge="1" parent="1" source="6" target="2">
          <mxGeometry relative="1" as="geometry">
            <Array as="points">
              <mxPoint x="210" y="290" />
            </Array>
          </mxGeometry>
        </mxCell>
        <mxCell id="BqZ-N2UubXxquW4L1a5G-128" value="HTTP: OK, Order&lt;div&gt;&amp;nbsp;updated succesfully&lt;/div&gt;" style="edgeLabel;html=1;align=center;verticalAlign=middle;resizable=0;points=[];" connectable="0" vertex="1" parent="BqZ-N2UubXxquW4L1a5G-127">
          <mxGeometry x="-0.0011" y="-2" relative="1" as="geometry">
            <mxPoint as="offset" />
          </mxGeometry>
        </mxCell>
      </root>
    </mxGraphModel>
  </diagram>
</mxfile>
